<svg width="100" height="19" viewBox="0 0 100 19" fill="none" xmlns="http://www.w3.org/2000/svg">
<path d="M4.55525 18H0.600709L6.62628 0.545454H11.382L17.399 18H13.4445L9.0723 4.53409H8.93594L4.55525 18ZM4.3081 11.1392H13.649V14.0199H4.3081V11.1392ZM19.2599 0.545454H23.811L28.6178 12.2727H28.8224L33.6292 0.545454H38.1803V18H34.6008V6.6392H34.4559L29.9388 17.9148H27.5013L22.9843 6.59659H22.8394V18H19.2599V0.545454ZM52.5547 6.1875C52.4353 5.77273 52.2677 5.40625 52.0518 5.08807C51.8359 4.7642 51.5717 4.49148 51.2592 4.26989C50.9524 4.04261 50.6001 3.86932 50.2024 3.75C49.8103 3.63068 49.3757 3.57102 48.8984 3.57102C48.0064 3.57102 47.2223 3.79261 46.5461 4.23579C45.8757 4.67898 45.353 5.32386 44.978 6.17045C44.603 7.01136 44.4155 8.03977 44.4155 9.25568C44.4155 10.4716 44.6001 11.5057 44.9694 12.358C45.3387 13.2102 45.8615 13.8608 46.5376 14.3097C47.2137 14.7528 48.012 14.9744 48.9325 14.9744C49.7677 14.9744 50.4808 14.8267 51.0717 14.5312C51.6683 14.2301 52.1228 13.8068 52.4353 13.2614C52.7535 12.7159 52.9126 12.071 52.9126 11.3267L53.6626 11.4375H49.1626V8.65909H56.4666V10.858C56.4666 12.392 56.1427 13.7102 55.495 14.8125C54.8473 15.9091 53.9552 16.7557 52.8189 17.3523C51.6825 17.9432 50.3814 18.2386 48.9155 18.2386C47.2791 18.2386 45.8416 17.8778 44.603 17.1562C43.3643 16.429 42.3984 15.3977 41.7052 14.0625C41.0177 12.7216 40.674 11.1307 40.674 9.28977C40.674 7.875 40.8785 6.61364 41.2876 5.50568C41.7024 4.39205 42.2819 3.44886 43.0262 2.67614C43.7706 1.90341 44.637 1.31534 45.6257 0.911931C46.6143 0.508522 47.6853 0.306818 48.8387 0.306818C49.8274 0.306818 50.7478 0.451704 51.6001 0.741477C52.4524 1.02557 53.2081 1.42898 53.8672 1.9517C54.5319 2.47443 55.0745 3.09659 55.495 3.81818C55.9155 4.53409 56.1853 5.32386 56.3047 6.1875H52.5547ZM61.0526 18.2216C60.4901 18.2216 60.0071 18.0227 59.6037 17.625C59.206 17.2216 59.0071 16.7386 59.0071 16.1761C59.0071 15.6193 59.206 15.142 59.6037 14.7443C60.0071 14.3466 60.4901 14.1477 61.0526 14.1477C61.598 14.1477 62.0753 14.3466 62.4844 14.7443C62.8935 15.142 63.098 15.6193 63.098 16.1761C63.098 16.5511 63.0014 16.8949 62.8083 17.2074C62.6208 17.5142 62.3736 17.7614 62.0668 17.9489C61.76 18.1307 61.4219 18.2216 61.0526 18.2216Z" fill="black"/>
<path d="M81.3076 6.65625H77.5747C77.5065 6.1733 77.3673 5.74432 77.157 5.36932C76.9468 4.98864 76.6769 4.66477 76.3474 4.39773C76.0178 4.13068 75.6372 3.92614 75.2053 3.78409C74.7792 3.64205 74.3161 3.57102 73.8161 3.57102C72.9127 3.57102 72.1258 3.79545 71.4553 4.24432C70.7849 4.6875 70.265 5.33523 69.8957 6.1875C69.5264 7.03409 69.3417 8.0625 69.3417 9.27273C69.3417 10.517 69.5264 11.5625 69.8957 12.4091C70.2707 13.2557 70.7934 13.8949 71.4639 14.3267C72.1343 14.7585 72.9099 14.9744 73.7906 14.9744C74.2849 14.9744 74.7423 14.9091 75.1627 14.7784C75.5889 14.6477 75.9667 14.4574 76.2962 14.2074C76.6258 13.9517 76.8985 13.642 77.1144 13.2784C77.336 12.9148 77.4894 12.5 77.5747 12.0341L81.3076 12.0511C81.211 12.8523 80.9695 13.625 80.5832 14.3693C80.2025 15.108 79.6883 15.7699 79.0406 16.3551C78.3985 16.9347 77.6315 17.3949 76.7394 17.7358C75.8531 18.071 74.8502 18.2386 73.7309 18.2386C72.1741 18.2386 70.782 17.8864 69.5548 17.1818C68.3332 16.4773 67.3673 15.4574 66.657 14.1222C65.9525 12.7869 65.6002 11.1705 65.6002 9.27273C65.6002 7.36932 65.9582 5.75 66.6741 4.41477C67.39 3.07955 68.3616 2.0625 69.5889 1.36364C70.8161 0.659091 72.1968 0.306818 73.7309 0.306818C74.7423 0.306818 75.6798 0.448863 76.5434 0.732954C77.4127 1.01705 78.1826 1.43182 78.8531 1.97727C79.5235 2.51704 80.069 3.17898 80.4894 3.96307C80.9156 4.74716 81.1883 5.64489 81.3076 6.65625ZM99.7537 9.27273C99.7537 11.1761 99.3929 12.7955 98.6713 14.1307C97.9554 15.4659 96.9781 16.4858 95.7395 17.1903C94.5065 17.8892 93.1202 18.2386 91.5804 18.2386C90.0293 18.2386 88.6372 17.8864 87.4043 17.1818C86.1713 16.4773 85.1969 15.4574 84.481 14.1222C83.7651 12.7869 83.4071 11.1705 83.4071 9.27273C83.4071 7.36932 83.7651 5.75 84.481 4.41477C85.1969 3.07955 86.1713 2.0625 87.4043 1.36364C88.6372 0.659091 90.0293 0.306818 91.5804 0.306818C93.1202 0.306818 94.5065 0.659091 95.7395 1.36364C96.9781 2.0625 97.9554 3.07955 98.6713 4.41477C99.3929 5.75 99.7537 7.36932 99.7537 9.27273ZM96.0122 9.27273C96.0122 8.03977 95.8276 7 95.4582 6.15341C95.0946 5.30682 94.5804 4.66477 93.9156 4.22727C93.2509 3.78977 92.4724 3.57102 91.5804 3.57102C90.6884 3.57102 89.9099 3.78977 89.2452 4.22727C88.5804 4.66477 88.0634 5.30682 87.694 6.15341C87.3304 7 87.1486 8.03977 87.1486 9.27273C87.1486 10.5057 87.3304 11.5455 87.694 12.392C88.0634 13.2386 88.5804 13.8807 89.2452 14.3182C89.9099 14.7557 90.6884 14.9744 91.5804 14.9744C92.4724 14.9744 93.2509 14.7557 93.9156 14.3182C94.5804 13.8807 95.0946 13.2386 95.4582 12.392C95.8276 11.5455 96.0122 10.5057 96.0122 9.27273Z" fill="#DD0836"/>
</svg>
