<svg width="100" height="100" viewBox="0 0 100 100" fill="none" xmlns="http://www.w3.org/2000/svg">
<g clip-path="url(#clip0_16_3043)">
<path d="M15.9463 38.838C15.967 38.838 25.9238 38.839 28.4072 39.5031C29.7819 39.8735 30.8622 40.9537 31.2275 42.3234C31.8922 44.8094 31.8926 50.0001 31.8926 50.0001C31.8926 50.0307 31.8902 55.1971 31.2275 57.6759C30.8572 59.0507 29.777 60.1319 28.4072 60.4972C25.9238 61.1612 15.967 61.1622 15.9463 61.1622C15.9463 61.1622 5.97649 61.1619 3.48535 60.4972C2.11053 60.1268 1.03028 59.0458 0.665039 57.6759C0.00314732 55.2001 1.1377e-05 50.0428 0 50.0001C0 50.0001 0.00033311 44.8094 0.665039 42.3234C1.03547 40.9487 2.1158 39.8684 3.48535 39.5031C5.97649 38.8383 15.9463 38.838 15.9463 38.838ZM12.7598 54.7843L21.0449 50.0001L12.7598 45.2159V54.7843Z" fill="#FF0000"/>
<path fill-rule="evenodd" clip-rule="evenodd" d="M46.2913 59.1472C45.6621 58.7211 45.2106 58.0615 44.9468 57.1636C44.6829 56.2655 44.5459 55.0732 44.5459 53.5815V51.5521C44.5459 50.0453 44.6981 48.8379 45.0025 47.9245C45.307 47.0113 45.7839 46.3467 46.4282 45.9306C47.0726 45.5146 47.9199 45.3016 48.9701 45.3016C50.0051 45.3016 50.8322 45.5146 51.4561 45.9408C52.0801 46.3669 52.5368 47.0316 52.826 47.9347C53.1152 48.8379 53.2573 50.0453 53.2573 51.547V53.5765C53.2573 55.0681 53.1152 56.2655 52.8361 57.1686C52.5571 58.0716 52.1006 58.7363 51.4663 59.1523C50.8371 59.5683 49.9797 59.7816 48.899 59.7816C47.793 59.7865 46.9204 59.5734 46.2913 59.1472ZM49.8275 56.9555C50 56.4989 50.0914 55.753 50.0914 54.7232V50.365C50.0914 49.3603 50.0051 48.6298 49.8275 48.1631C49.6551 47.7013 49.3455 47.4679 48.9041 47.4679C48.478 47.4679 48.1786 47.7013 48.0011 48.1631C47.8285 48.6247 47.7373 49.3603 47.7373 50.365V54.7232C47.7373 55.7581 47.8184 56.504 47.9858 56.9555C48.1533 57.4122 48.4577 57.6404 48.8991 57.6404C49.3455 57.6404 49.65 57.4122 49.8275 56.9555ZM94.7286 53.6171V54.3224C94.7286 55.2203 94.754 55.89 94.8098 56.3416C94.8605 56.7881 94.9722 57.1178 95.1396 57.3209C95.307 57.5237 95.5657 57.6303 95.9157 57.6303C96.3877 57.6303 96.7123 57.4477 96.8849 57.0823C97.0574 56.717 97.1536 56.1082 97.169 55.2559L99.8832 55.4132C99.8986 55.5349 99.9036 55.7023 99.9036 55.9153C99.9036 57.2092 99.5484 58.1731 98.8432 58.8124C98.138 59.4516 97.1385 59.7713 95.8448 59.7713C94.2922 59.7713 93.2066 59.2842 92.5825 58.3101C91.9584 57.336 91.649 55.8342 91.649 53.7947V51.3543C91.649 49.2539 91.9736 47.7266 92.6179 46.7577C93.2623 45.7937 94.3683 45.3117 95.9362 45.3117C97.0168 45.3117 97.8438 45.5096 98.4221 45.9053C99.0005 46.301 99.4064 46.9148 99.6449 47.752C99.8783 48.5892 100 49.746 100 51.2173V53.6121H94.7286V53.6171ZM95.1294 47.7317C94.972 47.9297 94.8656 48.2543 94.8097 48.7009C94.7539 49.1473 94.7286 49.8323 94.7286 50.7403V51.745H97.032V50.7403C97.032 49.8423 97.0015 49.1625 96.9406 48.7009C96.8797 48.2391 96.7682 47.9094 96.6108 47.7216C96.4535 47.5339 96.2049 47.4375 95.8701 47.4375C95.5353 47.4324 95.2867 47.5339 95.1294 47.7317ZM38.6301 53.3533L35.0483 40.4208H38.1735L39.4267 46.2808C39.7464 47.7267 39.9797 48.9545 40.132 49.9743H40.2232C40.3298 49.2436 40.5632 48.0209 40.9286 46.301L42.2273 40.4156H45.3526L41.7301 53.3533V59.5582H38.6301V53.3533ZM63.4196 45.5756V59.5531H60.9589L60.6849 57.8434H60.6189C59.9492 59.1371 58.9447 59.7815 57.6103 59.7815C56.682 59.7815 55.9969 59.4771 55.5556 58.8682C55.1142 58.2594 54.896 57.3107 54.896 56.0169V45.5756H58.0417V55.8393C58.0417 56.4633 58.1076 56.9099 58.2446 57.1737C58.3816 57.4375 58.6099 57.5745 58.9295 57.5745C59.2035 57.5745 59.4673 57.4932 59.7159 57.3259C59.9644 57.1585 60.1522 56.9453 60.274 56.6866V45.5754L63.4196 45.5756ZM79.5637 45.5756V59.5531H77.103L76.829 57.8434H76.763C76.0933 59.1371 75.0888 59.7815 73.7544 59.7815C72.826 59.7815 72.141 59.4771 71.6997 58.8682C71.2583 58.2594 71.0401 57.3107 71.0401 56.0169V45.5756H74.1857V55.8393C74.1857 56.4633 74.2517 56.9099 74.3887 57.1737C74.5256 57.4375 74.754 57.5745 75.0736 57.5745C75.3476 57.5745 75.6114 57.4932 75.86 57.3259C76.1085 57.1585 76.2963 56.9453 76.4181 56.6866V45.5754L79.5637 45.5756Z" fill="#282828"/>
<path fill-rule="evenodd" clip-rule="evenodd" d="M71.9738 42.9527H68.8485V59.5533H65.7688V42.9527H62.6436V40.421H71.9687V42.9527H71.9738ZM89.9798 47.813C89.7871 46.9303 89.4827 46.291 89.0565 45.8954C88.6304 45.4996 88.0469 45.3017 87.301 45.3017C86.7228 45.3017 86.1849 45.464 85.6826 45.7939C85.1803 46.1185 84.7947 46.5498 84.5207 47.0825H84.4954V39.7157H81.4614V59.5584H84.059L84.3786 58.2342H84.4447C84.6882 58.7061 85.0534 59.0764 85.5405 59.3503C86.0275 59.6243 86.5655 59.7613 87.159 59.7613C88.2245 59.7613 89.0057 59.2692 89.5081 58.2899C90.0103 57.3108 90.259 55.7786 90.259 53.6934V51.4812C90.2641 49.9186 90.1676 48.6959 89.9798 47.8132V47.813ZM87.093 53.5157C87.093 54.5356 87.0524 55.3321 86.9662 55.9105C86.885 56.4889 86.743 56.8998 86.5451 57.1434C86.3472 57.3869 86.0834 57.5087 85.7485 57.5087C85.4897 57.5087 85.2514 57.4479 85.0281 57.3261C84.81 57.2043 84.6273 57.0216 84.4903 56.778V48.838C84.5969 48.4574 84.7795 48.148 85.0383 47.9046C85.297 47.661 85.576 47.5392 85.8804 47.5392C86.2001 47.5392 86.4486 47.6659 86.6212 47.9145C86.7937 48.1632 86.9155 48.5893 86.9864 49.1778C87.0525 49.7715 87.0879 50.6137 87.0879 51.7095V53.5157H87.093Z" fill="#282828"/>
</g>
<defs>
<clipPath id="clip0_16_3043">
<rect width="100" height="100" fill="white"/>
</clipPath>
</defs>
</svg>
