<svg width="100" height="100" viewBox="0 0 100 100" fill="none" xmlns="http://www.w3.org/2000/svg">
<g clip-path="url(#clip0_16_3055)">
<path d="M99.9998 48.9832V47.2245H97.8159V44.4905L97.7424 44.5131L95.6912 45.1407L95.6507 45.153V47.2246H92.4131V46.0706C92.4131 45.5332 92.5332 45.122 92.77 44.8477C93.0052 44.5768 93.3415 44.439 93.7706 44.439C94.079 44.439 94.3983 44.5117 94.7196 44.6549L94.8002 44.6909V42.8388L94.7623 42.8249C94.4625 42.7171 94.0548 42.6628 93.5493 42.6628C92.9123 42.6628 92.3336 42.8015 91.8288 43.0762C91.3237 43.3513 90.9264 43.7441 90.6481 44.2434C90.3708 44.7422 90.23 45.3182 90.23 45.9557V47.2245H88.7094V48.9832H90.23V56.3921H92.4131V48.9832H95.6507V53.6914C95.6507 55.6305 96.5653 56.6131 98.3692 56.6131C98.6656 56.6131 98.9775 56.5784 99.2961 56.5104C99.6203 56.4406 99.8412 56.3708 99.9712 56.2963L99.9999 56.2793V54.5044L99.9111 54.5631C99.7926 54.642 99.6451 54.7066 99.4722 54.7546C99.2984 54.8034 99.1533 54.8279 99.0409 54.8279C98.6184 54.8279 98.3057 54.714 98.1118 54.4893C97.9156 54.2626 97.816 53.866 97.816 53.3113V48.9832H99.9998ZM83.8343 54.8282C83.0419 54.8282 82.4172 54.5654 81.977 54.0479C81.534 53.5277 81.3096 52.7862 81.3096 51.844C81.3096 50.8719 81.534 50.111 81.9772 49.5817C82.4177 49.0558 83.0364 48.7889 83.8165 48.7889C84.5734 48.7889 85.176 49.0438 85.6076 49.547C86.0414 50.0527 86.2616 50.8074 86.2616 51.7909C86.2616 52.7864 86.0546 53.5511 85.6463 54.0626C85.2409 54.5703 84.6313 54.8282 83.8343 54.8282ZM83.9313 47.0037C82.4196 47.0037 81.2189 47.4466 80.3628 48.3203C79.5073 49.194 79.0735 50.4031 79.0735 51.9143C79.0735 53.3497 79.497 54.5042 80.3322 55.3453C81.1674 56.1867 82.304 56.6129 83.7103 56.6129C85.1756 56.6129 86.3524 56.1638 87.2081 55.2781C88.0638 54.3933 88.4972 53.1957 88.4972 51.7197C88.4972 50.2619 88.0905 49.0988 87.2878 48.2633C86.4848 47.4274 85.3554 47.0037 83.9313 47.0037ZM75.5538 47.0037C74.5255 47.0037 73.6749 47.2667 73.0252 47.7853C72.3714 48.307 72.0398 48.9912 72.0398 49.8192C72.0398 50.2496 72.1114 50.6319 72.2522 50.9561C72.394 51.2814 72.6133 51.5679 72.9046 51.8083C73.1938 52.0467 73.6401 52.2965 74.2315 52.5506C74.7288 52.7552 75.0996 52.9283 75.3351 53.0647C75.5653 53.1984 75.7287 53.3327 75.821 53.4636C75.9107 53.5917 75.9561 53.767 75.9561 53.9833C75.9561 54.5992 75.4949 54.8989 74.5458 54.8989C74.1938 54.8989 73.7923 54.8254 73.3524 54.6805C72.9157 54.5377 72.5035 54.3287 72.1303 54.0608L72.0396 53.9958V56.0975L72.0729 56.113C72.3818 56.2556 72.7712 56.3758 73.2302 56.4705C73.6884 56.5652 74.1046 56.6133 74.4662 56.6133C75.5821 56.6133 76.4806 56.3491 77.1363 55.8274C77.7962 55.3021 78.1306 54.6017 78.1306 53.7451C78.1306 53.1272 77.9505 52.5972 77.5957 52.1699C77.2433 51.746 76.6316 51.3568 75.7785 51.0128C75.0989 50.74 74.6635 50.5135 74.4838 50.3397C74.3107 50.1718 74.2227 49.9343 74.2227 49.6335C74.2227 49.3669 74.3313 49.1533 74.5541 48.9804C74.7786 48.8065 75.0911 48.7181 75.4831 48.7181C75.8468 48.7181 76.219 48.7756 76.5891 48.8882C76.9589 49.0008 77.2837 49.1516 77.5549 49.3361L77.6441 49.397V47.4033L77.6098 47.3886C77.3597 47.2813 77.0298 47.1895 76.6291 47.115C76.2303 47.041 75.8685 47.0037 75.5538 47.0037ZM66.3488 54.8282C65.5566 54.8282 64.9317 54.5654 64.4915 54.0479C64.0485 53.5277 63.8245 52.7864 63.8245 51.844C63.8245 50.8719 64.0488 50.111 64.492 49.5817C64.9322 49.0558 65.5508 48.7889 66.3313 48.7889C67.0879 48.7889 67.6905 49.0438 68.1222 49.547C68.5561 50.0527 68.7761 50.8074 68.7761 51.7909C68.7761 52.7864 68.569 53.5511 68.1608 54.0626C67.7554 54.5703 67.1461 54.8282 66.3488 54.8282ZM66.4461 47.0037C64.934 47.0037 63.7332 47.4466 62.8776 48.3203C62.0221 49.194 61.588 50.4031 61.588 51.9143C61.588 53.3502 62.0117 54.5042 62.8469 55.3453C63.6822 56.1867 64.8187 56.6129 66.2249 56.6129C67.6901 56.6129 68.8672 56.1638 69.7229 55.2781C70.5783 54.3933 71.012 53.1957 71.012 51.7197C71.012 50.2619 70.6051 49.0988 69.8023 48.2633C68.9991 47.4274 67.8698 47.0037 66.4461 47.0037ZM58.2743 48.8122V47.2245H56.1178V56.3919H58.2743V51.7024C58.2743 50.905 58.455 50.2499 58.8118 49.7551C59.164 49.2662 59.6334 49.0185 60.2064 49.0185C60.4007 49.0185 60.6187 49.0505 60.8549 49.1139C61.0886 49.1769 61.2579 49.2452 61.3577 49.3172L61.4483 49.3829V47.2089L61.4134 47.1939C61.2126 47.1085 60.9285 47.0655 60.569 47.0655C60.0271 47.0655 59.5422 47.2396 59.1268 47.5824C58.7622 47.8838 58.4987 48.2969 58.2972 48.8122H58.2743ZM52.256 47.0037C51.2667 47.0037 50.3843 47.2158 49.6337 47.634C48.8816 48.0532 48.3 48.6516 47.9042 49.4125C47.5102 50.1716 47.3102 51.0583 47.3102 52.0471C47.3102 52.9133 47.5041 53.7082 47.8875 54.4087C48.271 55.1104 48.8139 55.6594 49.5011 56.0402C50.1874 56.4204 50.9805 56.6132 51.8587 56.6132C52.8835 56.6132 53.7584 56.4083 54.46 56.0043L54.4883 55.988V54.0124L54.3977 54.0786C54.0799 54.3101 53.7248 54.4948 53.3427 54.6279C52.9615 54.7609 52.6141 54.8282 52.3093 54.8282C51.4632 54.8282 50.7839 54.5634 50.2909 54.0414C49.7967 53.5187 49.5462 52.7848 49.5462 51.8613C49.5462 50.9319 49.8075 50.1791 50.3224 49.6237C50.8358 49.0699 51.5163 48.7889 52.3449 48.7889C53.0537 48.7889 53.7444 49.0289 54.3979 49.5029L54.4883 49.5686V47.487L54.4591 47.4705C54.2132 47.3329 53.8778 47.2192 53.4615 47.133C53.0469 47.047 52.6413 47.0037 52.256 47.0037ZM45.825 47.2246H43.6685V56.3919H45.825V47.2246ZM44.7688 43.3193C44.4139 43.3193 44.1043 43.4401 43.85 43.6795C43.5946 43.9196 43.4651 44.2219 43.4651 44.5787C43.4651 44.9298 43.5931 45.2266 43.8461 45.4604C44.0974 45.6934 44.4079 45.8115 44.7689 45.8115C45.1298 45.8115 45.4415 45.6934 45.6958 45.4607C45.9518 45.2266 46.0816 44.9299 46.0816 44.5787C46.0816 44.2344 45.9553 43.9352 45.7064 43.6892C45.4577 43.4437 45.1421 43.3193 44.7688 43.3193ZM39.3884 46.5482V56.3919H41.5891V43.5999H38.5432L34.6717 53.1014L30.9146 43.5999H27.7446V56.3918H29.8127V46.5473H29.8837L33.8512 56.3919H35.4119L39.3174 46.5482H39.3884Z" fill="#706D6E"/>
<path d="M10.1445 49.4699H0V39.3254H10.1445V49.4699Z" fill="#F1511B"/>
<path d="M21.3452 49.4699H11.2009V39.3254H21.3452V49.4699Z" fill="#80CC28"/>
<path d="M10.1442 60.6745H0V50.5302H10.1442V60.6745Z" fill="#00ADEF"/>
<path d="M21.3452 60.6745H11.2009V50.5302H21.3452V60.6745Z" fill="#FBBC09"/>
</g>
<defs>
<clipPath id="clip0_16_3055">
<rect width="100" height="100" fill="white"/>
</clipPath>
</defs>
</svg>
