<svg width="100" height="100" viewBox="0 0 100 100" fill="none" xmlns="http://www.w3.org/2000/svg">
<path fill-rule="evenodd" clip-rule="evenodd" d="M31.9919 57.284L33.2399 54.384C34.5879 55.392 36.3839 55.916 38.1559 55.916C39.4639 55.916 40.2919 55.412 40.2919 54.648C40.2719 52.512 32.4559 54.184 32.3959 48.828C32.3759 46.108 34.7919 44.012 38.2159 44.012C40.2519 44.012 42.2839 44.516 43.7359 45.664L42.5679 48.624C41.2399 47.776 39.5879 47.172 38.0159 47.172C36.9479 47.172 36.2439 47.676 36.2439 48.32C36.2639 50.416 44.1399 49.268 44.2199 54.384C44.2199 57.164 41.8639 59.12 38.4799 59.12C35.9999 59.116 33.7239 58.532 31.9919 57.284ZM79.9159 53.336C79.2919 54.424 78.1239 55.168 76.7719 55.168C74.7759 55.168 73.1679 53.556 73.1679 51.564C73.1679 49.572 74.7799 47.96 76.7719 47.96C78.1199 47.96 79.2919 48.704 79.9159 49.792L83.3599 47.88C82.0719 45.584 79.5919 44.012 76.7719 44.012C72.5999 44.012 69.2159 47.396 69.2159 51.568C69.2159 55.74 72.5999 59.124 76.7719 59.124C79.6119 59.124 82.0719 57.572 83.3599 55.256L79.9159 53.336ZM45.9519 37.744H50.2639V58.836H45.9519V37.744ZM85.0519 37.744V58.836H89.3639V52.508L94.4799 58.836H99.9999L93.4919 51.32L99.5159 44.308H94.2359L89.3599 50.128V37.744H85.0519Z" fill="black"/>
<path d="M63.0759 53.376C62.4519 54.404 61.1639 55.168 59.7119 55.168C57.7159 55.168 56.1079 53.556 56.1079 51.564C56.1079 49.572 57.7199 47.9601 59.7119 47.9601C61.1639 47.9601 62.4519 48.764 63.0759 49.812V53.376ZM63.0759 44.3121V46.0241C62.3719 44.8361 60.6199 44.0081 58.7839 44.0081C54.9959 44.0081 52.0159 47.3521 52.0159 51.544C52.0159 55.736 54.9959 59.12 58.7839 59.12C60.6159 59.12 62.3679 58.296 63.0759 57.104V58.816H67.3879V44.3121H63.0759Z" fill="black"/>
<path fill-rule="evenodd" clip-rule="evenodd" d="M5.34002 53.3562C5.34002 54.8282 4.15202 56.0162 2.68002 56.0162C1.20802 56.0162 0.0200195 54.8242 0.0200195 53.3562C0.0200195 51.8882 1.20802 50.6962 2.68002 50.6962H5.34002V53.3562ZM6.66802 53.3562C6.66802 51.8842 7.85602 50.6962 9.32802 50.6962C10.8 50.6962 11.988 51.8842 11.988 53.3562V60.0042C11.988 61.4762 10.8 62.6642 9.32802 62.6642C7.85602 62.6642 6.66802 61.4762 6.66802 60.0042V53.3562Z" fill="#E01E5A"/>
<path fill-rule="evenodd" clip-rule="evenodd" d="M9.328 42.6801C7.856 42.6801 6.668 41.4921 6.668 40.0201C6.668 38.5481 7.856 37.3601 9.328 37.3601C10.8 37.3601 11.988 38.5481 11.988 40.0201V42.6801H9.328ZM9.328 44.0281C10.8 44.0281 11.988 45.2161 11.988 46.6881C11.988 48.1601 10.8 49.3481 9.328 49.3481H2.66C1.188 49.3481 0 48.1561 0 46.6881C0 45.2201 1.188 44.0281 2.66 44.0281H9.328Z" fill="#36C5F0"/>
<path fill-rule="evenodd" clip-rule="evenodd" d="M19.9839 46.6881C19.9839 45.2161 21.1719 44.0281 22.6439 44.0281C24.1159 44.0281 25.3039 45.2161 25.3039 46.6881C25.3039 48.1601 24.1159 49.3481 22.6439 49.3481H19.9839V46.6881ZM18.6559 46.6881C18.6559 48.1601 17.4679 49.3481 15.9959 49.3481C14.5239 49.3481 13.3359 48.1601 13.3359 46.6881V40.0201C13.3359 38.5481 14.5239 37.3601 15.9959 37.3601C17.4679 37.3601 18.6559 38.5481 18.6559 40.0201V46.6881Z" fill="#2EB67D"/>
<path fill-rule="evenodd" clip-rule="evenodd" d="M15.9959 57.3442C17.4679 57.3442 18.6559 58.5322 18.6559 60.0042C18.6559 61.4762 17.4679 62.6642 15.9959 62.6642C14.5239 62.6642 13.3359 61.4762 13.3359 60.0042V57.3442H15.9959ZM15.9959 56.0162C14.5239 56.0162 13.3359 54.8282 13.3359 53.3562C13.3359 51.8842 14.5239 50.6962 15.9959 50.6962H22.6639C24.1359 50.6962 25.3239 51.8842 25.3239 53.3562C25.3239 54.8282 24.1359 56.0162 22.6639 56.0162H15.9959Z" fill="#ECB22E"/>
</svg>
