<svg width="100" height="100" viewBox="0 0 100 100" fill="none" xmlns="http://www.w3.org/2000/svg">
<path d="M15.9188 40.1501H0.0488281V44.0101L1.49883 49.7501L6.04883 50.0101L9.90883 46.1501L17.5488 44.5101L15.9188 40.1501Z" fill="#00C425"/>
<path d="M0.0488281 44.0101V59.8801H3.90883L10.3688 59.3401L9.91883 53.8701L0.0488281 44.0101Z" fill="#3AF23A"/>
<path d="M3.90625 59.8798H19.7762V56.0198L18.0862 50.8798L13.7662 50.0098L3.90625 59.8798Z" fill="#006446"/>
<path d="M95.6783 47.9803L92.1883 51.1504L95.6783 54.3404V56.1805H95.5683L90.3883 51.4804V55.9505H88.8883V42.4302H90.3883V50.8804L95.5383 46.1902H95.6783V47.9803ZM27.9883 55.9505H35.6483V54.4404H29.5483V42.8702H27.9883V55.9505ZM40.9483 46.2002C38.5983 46.2002 36.4583 48.1103 36.4583 51.1904C36.4583 54.1804 38.4183 56.1605 41.2383 56.1605C42.4983 56.1605 43.6583 55.8405 44.7083 55.0804V53.4704C43.6083 54.3904 42.3883 54.7804 41.2883 54.7804C39.5983 54.7804 38.0983 53.7304 37.9583 51.7704H45.0983C45.1183 51.5804 45.1583 51.1604 45.1583 51.0004C45.1583 47.8503 43.2583 46.2002 40.9483 46.2002ZM40.9583 47.5703C42.2883 47.5703 43.6383 48.4303 43.6883 50.4603H37.9483C38.0383 48.8903 39.2483 47.5703 40.9583 47.5703ZM66.1483 46.2002C64.8783 46.2002 63.9583 46.8703 63.4083 47.8603C62.9483 46.8003 62.0983 46.2002 60.7383 46.2002C59.5483 46.2002 58.6683 46.8903 58.1883 47.8103H58.1483L57.9683 46.3903H56.7783V55.9405H58.2983V49.9103C58.2983 48.7403 59.0283 47.6503 60.3483 47.6503C61.6383 47.6503 62.2083 48.4103 62.2083 49.7903V55.9505H63.7283V49.8103C63.7283 48.7003 64.4683 47.6503 65.7683 47.6503C67.0783 47.6503 67.6383 48.4103 67.6383 49.7903V55.9505H69.1583V49.5803C69.1683 47.5803 68.2383 46.2002 66.1483 46.2002ZM75.3183 46.2002C73.0383 46.2002 70.9083 48.1303 70.9083 51.1904C70.9083 54.2104 73.0283 56.1605 75.3183 56.1605C76.7483 56.1605 78.0983 55.4905 78.8183 54.1604H78.8383L79.0183 55.9505H80.2583V46.4003H79.0183L78.8383 48.1903H78.8183C78.0983 46.8803 76.7483 46.2002 75.3183 46.2002ZM75.5983 47.6203C77.3983 47.6203 78.7683 49.0703 78.7683 51.1804C78.7683 53.2804 77.4083 54.7404 75.5983 54.7404C73.8283 54.7404 72.4283 53.3104 72.4283 51.2004C72.4283 49.0503 73.8283 47.6203 75.5983 47.6203ZM86.7383 46.2903C85.9083 46.2903 84.6483 46.6803 83.9983 47.9203H83.9783L83.8183 46.4003H82.5983V55.9505H84.1183V50.4503C84.1183 48.2403 85.9083 47.5503 87.3783 47.8503V46.3403C87.1783 46.3103 86.9883 46.2903 86.7383 46.2903ZM54.8283 46.1802H54.7083L50.7183 50.1603L46.7383 46.1802H46.6183V48.1103L49.6883 51.1804L46.6183 54.2304V56.1805H46.7383L50.6983 52.1804L54.7083 56.1805H54.8283V54.2204L51.7283 51.1504L54.8283 48.0303V46.1802ZM95.6783 42.6402V42.4302H97.3383V42.6402H96.6383V44.3002H96.3883V42.6302C96.3783 42.6402 95.6783 42.6402 95.6783 42.6402ZM98.1783 42.4302L98.8983 44.0102L99.6183 42.4302H99.9583V44.3002H99.7183V42.7302L98.9983 44.3002H98.7883L98.0783 42.7302V44.3002H97.8383V42.4202H98.1783V42.4302Z" fill="#32323C"/>
<path d="M19.7819 56.0201V40.1501H15.9219L9.92188 46.1501L19.7819 56.0201Z" fill="#008A44"/>
</svg>
