<svg width="100" height="100" viewBox="0 0 100 100" fill="none" xmlns="http://www.w3.org/2000/svg">
<g clip-path="url(#clip0_16_3048)">
<path d="M12.3154 33.6829H13.2047C16.2919 33.75 19.3289 34.9916 21.5101 37.1896C20.7047 38.0117 19.8826 38.8003 19.094 39.6225C17.8691 38.5151 16.3926 37.6594 14.7819 37.3574C12.3993 36.854 9.83222 37.307 7.83557 38.6661C5.65436 40.0923 4.17785 42.5084 3.85906 45.0923C3.50671 47.6426 4.22819 50.3272 5.88926 52.3071C7.48322 54.2366 9.91611 55.4447 12.4329 55.5286C14.7819 55.6628 17.2315 54.9413 18.943 53.297C20.2852 52.1393 20.906 50.3775 21.1074 48.6661C18.3221 48.6661 15.5369 48.6829 12.7517 48.6661V45.2097H24.4799C25.0839 48.9178 24.2114 53.0957 21.3926 55.7467C19.5134 57.6259 16.9128 58.7333 14.2617 58.9514C11.6946 59.2031 9.04362 58.7165 6.76174 57.4749C4.02685 56.0151 1.84564 53.5487 0.771812 50.646C-0.234899 47.9782 -0.251678 44.9581 0.687919 42.2735C1.54362 39.8238 3.18792 37.6594 5.30201 36.1493C7.33222 34.656 9.79866 33.8339 12.3154 33.6829Z" fill="#3780FF"/>
<path d="M79.5974 34.5553H83.188V58.515C81.9967 58.515 80.7887 58.5318 79.5974 58.4982C79.6142 50.5284 79.5974 42.5419 79.5974 34.5553Z" fill="#38B137"/>
<path d="M32.4665 42.8608C34.6812 42.4413 37.0806 42.9111 38.9094 44.2366C40.5705 45.4111 41.7282 47.2567 42.0806 49.2702C42.5336 51.6024 41.9631 54.1527 40.453 55.9983C38.8255 58.0621 36.1577 59.1695 33.5571 59.0017C31.1745 58.8675 28.8591 57.6762 27.4497 55.7299C25.8557 53.5822 25.4698 50.6292 26.3423 48.1124C27.2148 45.4111 29.6812 43.3473 32.4665 42.8608ZM32.9698 46.0487C32.0638 46.2836 31.2248 46.8037 30.6208 47.542C28.9933 49.4883 29.094 52.6594 30.8893 54.4715C31.9128 55.5118 33.4564 55.9983 34.8826 55.7131C36.2081 55.4782 37.3658 54.589 38.0034 53.4145C39.1108 51.4178 38.792 48.6661 37.0973 47.1057C36.0067 46.099 34.4128 45.6795 32.9698 46.0487Z" fill="#FA3913"/>
<path d="M50.2517 42.8608C52.7852 42.3742 55.5537 43.0789 57.4497 44.8574C60.5369 47.6259 60.8725 52.8104 58.2383 55.9983C56.6443 58.0118 54.0604 59.1191 51.5101 59.0017C49.0772 58.9346 46.6779 57.7265 45.2349 55.7299C43.6074 53.5319 43.2551 50.5118 44.1779 47.9447C45.1007 45.3272 47.5168 43.3306 50.2517 42.8608ZM50.755 46.0487C49.849 46.2836 49.0101 46.8037 48.4061 47.5252C46.7953 49.4379 46.8624 52.5587 48.5906 54.3876C49.6141 55.4782 51.2081 56.0151 52.6846 55.7131C53.9933 55.4614 55.1678 54.5889 55.8054 53.4144C56.896 51.401 56.5772 48.6493 54.8658 47.0889C53.7752 46.0822 52.1812 45.6796 50.755 46.0487Z" fill="#FCBD06"/>
<path d="M65.3355 43.8337C67.265 42.6257 69.8322 42.2901 71.9127 43.3304C72.5671 43.6156 73.104 44.1022 73.6241 44.5887C73.6409 44.1357 73.6241 43.6659 73.6409 43.1961C74.7651 43.2129 75.8892 43.1961 77.0302 43.2129V58.0115C77.0134 60.2431 76.4429 62.6088 74.8322 64.2364C73.0704 66.0317 70.3691 66.5854 67.9362 66.2162C65.3355 65.8303 63.0704 63.9344 62.0637 61.535C63.0704 61.0484 64.1275 60.6625 65.1677 60.2095C65.755 61.5854 66.9463 62.7599 68.4395 63.0283C69.9328 63.2968 71.661 62.9276 72.6342 61.686C73.6744 60.4109 73.6744 58.6659 73.6241 57.1055C72.8523 57.8605 71.963 58.5317 70.8892 58.7834C68.557 59.4377 65.9899 58.6323 64.1946 57.0552C62.3825 55.478 61.3087 53.0451 61.4093 50.629C61.4597 47.8941 63.0033 45.2599 65.3355 43.8337ZM68.8087 45.9814C67.7852 46.1491 66.8288 46.7196 66.1744 47.5082C64.5973 49.3874 64.5973 52.3907 66.1912 54.2364C67.0973 55.327 68.557 55.931 69.9664 55.78C71.2919 55.6458 72.5167 54.8068 73.1711 53.6491C74.2785 51.686 74.0939 49.0183 72.6006 47.3069C71.6778 46.2498 70.2013 45.7297 68.8087 45.9814Z" fill="#3780FF"/>
<path d="M87.5 44.6895C89.5135 42.8103 92.6175 42.1727 95.2014 43.1627C97.6511 44.0855 99.2115 46.4177 100 48.817C96.3591 50.3271 92.7349 51.8204 89.094 53.3305C89.5973 54.2868 90.3692 55.1593 91.4094 55.5117C92.8692 56.0318 94.6141 55.8472 95.839 54.8741C96.3256 54.505 96.7115 54.0184 97.0806 53.5486C98.0034 54.1694 98.9262 54.7734 99.849 55.3942C98.5403 57.3573 96.3423 58.7331 93.9765 58.9513C91.3591 59.2701 88.5739 58.2633 86.8792 56.2164C84.094 52.9949 84.3624 47.5922 87.5 44.6895ZM89.2953 47.7935C88.7249 48.6157 88.49 49.6224 88.5067 50.6123C90.9396 49.6056 93.3725 48.5989 95.8054 47.5754C95.4027 46.6358 94.4296 46.0654 93.4396 45.9143C91.8457 45.6291 90.1846 46.4848 89.2953 47.7935Z" fill="#FA3913"/>
</g>
<defs>
<clipPath id="clip0_16_3048">
<rect width="100" height="100" fill="white"/>
</clipPath>
</defs>
</svg>
